<?xml version="1.0" encoding="utf-8"?><svg xmlns="http://www.w3.org/2000/svg" xmlns:xlink="http://www.w3.org/1999/xlink"><symbol fill="currentColor" viewBox="0 0 12.2 9.9" id="active" xmlns="http://www.w3.org/2000/svg"><path d="M11 0 4.5 7.39 1.09 3.5 0 4.69l4.5 5.2 7.7-8.59z"/></symbol><symbol fill="currentColor" viewBox="0 0 13 15" id="breadcrums-home" xmlns="http://www.w3.org/2000/svg"><defs><clipPath id="ba"><rect width="12" height="14" fill-opacity="0" rx="0" transform="translate(.5 .5)"/></clipPath></defs><g clip-path="url(#ba)"><path fill-rule="evenodd" d="m.5 6.3 6-5.8 6 5.8v6.2H.5zm1 .39v4.81h10V6.69l-5-4.8zm4 3.81h-1V7h4v3.5h-1V8h-2z"/></g></symbol><symbol fill="currentColor" viewBox="0 0 6.393 9.938" id="breadcrums-next" xmlns="http://www.w3.org/2000/svg"><path d="M6.11 4.43 1.36.18C1.11-.07.61-.07.23.18s-.25.75 0 1l4.13 3.75-4 3.75a.76.76 0 0 0 0 1c0 .13.37.25.5.25.12 0 .37-.12.5-.25l4.75-4.25a.6.6 0 0 0 0-1"/></symbol><symbol fill="currentColor" viewBox="0 0 14 14" id="close" xmlns="http://www.w3.org/2000/svg"><path d="M14 1.29 12.7 0 7 5.7 1.29 0 0 1.29 5.7 7 0 12.7 1.29 14 7 8.29 12.7 14l1.3-1.3L8.29 7z"/></symbol><symbol viewBox="0 0 48 48" id="dark-mode" xmlns="http://www.w3.org/2000/svg"><path d="M32.8 29.3c-8.9-.8-16.2-7.8-17.5-16.6-.3-1.8-.3-3.7 0-5.4.2-1.4-1.4-2.3-2.5-1.6A21.4 21.4 0 0 0 2.5 25c.5 10.7 9 19.5 19.7 20.4 10.6.9 19.8-6 22.5-15.6.4-1.4-1-2.6-2.3-2a19 19 0 0 1-9.6 1.5" style="fill:none;stroke:#000;stroke-linecap:round;stroke-linejoin:round"/></symbol><symbol fill="currentColor" viewBox="0 0 20 20" id="date" xmlns="http://www.w3.org/2000/svg"><defs><clipPath id="fa"><rect width="19" height="19" fill-opacity="0" rx="0" transform="translate(.5 .5)"/></clipPath></defs><g clip-path="url(#fa)" opacity=".3"><path fill-rule="evenodd" d="M17 4h-2V2h-1v2H6V2H5v2H3c-.61 0-1 .4-1 1v11c0 .5.39 1 1 1h14c.5 0 1-.5 1-1V5c0-.6-.5-1-1-1M3 8V5h2v2h1V5h8v2h1V5h2v3zm14 8H3V9h14zM5.5 12c.3 0 .5-.2.5-.5s-.2-.5-.5-.5c-.31 0-.5.2-.5.5s.19.5.5.5m2.25 0c.3 0 .5-.2.5-.5s-.2-.5-.5-.5c-.31 0-.5.2-.5.5s.19.5.5.5M10 12c.3 0 .5-.2.5-.5s-.2-.5-.5-.5c-.31 0-.5.2-.5.5s.19.5.5.5m2.25 0c.3 0 .5-.2.5-.5s-.2-.5-.5-.5-.5.2-.5.5.2.5.5.5m2.25 0c.3 0 .5-.2.5-.5s-.2-.5-.5-.5-.5.2-.5.5.2.5.5.5m-9 1c-.31 0-.5.2-.5.5s.19.5.5.5c.3 0 .5-.2.5-.5s-.2-.5-.5-.5m2.25 0c-.31 0-.5.2-.5.5s.19.5.5.5c.3 0 .5-.2.5-.5s-.2-.5-.5-.5M10 13c-.31 0-.5.2-.5.5s.19.5.5.5c.3 0 .5-.2.5-.5s-.2-.5-.5-.5m2.25 0c-.3 0-.5.2-.5.5s.2.5.5.5.5-.2.5-.5-.2-.5-.5-.5m2.25 0c-.3 0-.5.2-.5.5s.2.5.5.5.5-.2.5-.5-.2-.5-.5-.5"/></g></symbol><symbol fill="currentColor" viewBox="0 0 20 20" id="heart" xmlns="http://www.w3.org/2000/svg"><defs><clipPath id="ga"><rect width="19" height="19" fill-opacity="0" rx="0" transform="translate(.5 .5)"/></clipPath></defs><g clip-path="url(#ga)"><path d="M9.89 19a.9.9 0 0 1-.79-.4c-5.41-6.1-6.71-7.5-7-7.9A5.4 5.4 0 0 1 1 7.4C1 4.4 3.39 2 6.5 2 7.8 2 9 2.5 10 3.3a5.46 5.46 0 0 1 9 4.1c0 1.3-.5 2.49-1.3 3.4l-7 7.9c-.2.2-.4.3-.81.3m-6-9.5c.3.39 3.5 4 6.11 6.9l6.2-7.01c.5-.5.69-1.19.69-1.99 0-1.8-1.5-3.3-3.29-3.3-1 0-2 .5-2.71 1.3-.29.3-.59.4-.89.4s-.61-.2-.81-.4A3.6 3.6 0 0 0 6.5 4.1a3.33 3.33 0 0 0-3.31 3.3c-.09.9.31 1.6.7 2.1"/></g></symbol><symbol fill="currentColor" viewBox="0 0 24 24" id="light-mode" xmlns="http://www.w3.org/2000/svg"><g stroke="#000" stroke-miterlimit="10" stroke-width="1.5" clip-path="url(#ha)"><path stroke-linecap="round" d="M5 12H1m22 0h-4M7.05 7.05 4.22 4.22m15.56 15.56-2.83-2.83m-9.9 0-2.83 2.83M19.78 4.22l-2.83 2.83"/><path fill-opacity=".16" d="M12 16a4 4 0 1 0 0-8 4 4 0 0 0 0 8Z"/><path stroke-linecap="round" d="M12 19v4m0-22v4"/></g><defs><clipPath id="ha"><path d="M0 0h24v24H0z"/></clipPath></defs></symbol><symbol fill="currentColor" viewBox="0 0 14 2" id="minus" xmlns="http://www.w3.org/2000/svg"><path fill-opacity=".3" fill-rule="evenodd" d="M0 2V0h14v2z"/></symbol><symbol fill="currentColor" viewBox="0 0 14 14" id="plus" xmlns="http://www.w3.org/2000/svg"><path fill-opacity=".3" d="M14 6H8V0H6v6H0v2h6v6h2V8h6z"/></symbol><symbol fill="currentColor" viewBox="0 0 2 12" id="popup" xmlns="http://www.w3.org/2000/svg"><path fill-rule="evenodd" d="M0 0h2v2H0zm2 12H0V3h2z"/></symbol><symbol fill="currentColor" viewBox="0 0 18 17" id="rating-star" xmlns="http://www.w3.org/2000/svg"><path d="m9 0 2.1 6.5H18l-5.6 4 2.2 6.5L9 13l-5.6 4 2.19-6.5L0 6.5h6.9z"/></symbol><symbol fill="currentColor" viewBox="0 0 20 20" id="search" xmlns="http://www.w3.org/2000/svg"><defs><clipPath id="ma"><path fill-opacity="0" d="M0 0h20v20H0z"/></clipPath></defs><g clip-path="url(#ma)"><path d="m19.5 18-3.71-3.68a8 8 0 0 0 1.71-4.87 8 8 0 0 0-8-7.95c-4.4 0-8 3.67-8 8.05a8 8 0 0 0 12.89 6.27l3.71 3.68zm-10-2.48a6 6 0 0 1-6-5.97 6 6 0 0 1 12 0 6 6 0 0 1-6 5.97"/></g></symbol><symbol fill="currentColor" viewBox="0 0 11.925 7.025" id="select-arrow" xmlns="http://www.w3.org/2000/svg"><path d="m6.6 6.72 5.1-5.3c.3-.3.3-.9 0-1.2-.31-.3-.9-.3-1.2 0L6 4.92 1.5.22c-.31-.3-.9-.3-1.2 0-.2.1-.3.4-.3.6q0 .3.3.6l5.09 5.3c.3.4.91.4 1.21 0"/></symbol><symbol fill="currentColor" viewBox="0 0 18 16" id="social-tg" xmlns="http://www.w3.org/2000/svg"><rect width="17" height="15" rx="0" transform="translate(.5 .5)"/><path d="M16.78.09.84 6.24c-1.09.44-1.09 1.05-.2 1.32l4.09 1.27 9.47-5.97c.45-.27.86-.13.52.17L7.05 9.96l-.28 4.22c.41 0 .59-.19.82-.42l1.99-1.93 4.14 3.05c.76.43 1.31.21 1.5-.7l2.71-12.8c.28-1.11-.42-1.61-1.15-1.29"/></symbol><symbol fill="currentColor" viewBox="0 0 24 14" id="social-vk" xmlns="http://www.w3.org/2000/svg"><path fill-rule="evenodd" d="M23.45.94c.16-.54 0-.94-.8-.94h-2.62c-.67 0-.98.34-1.15.72 0 0-1.33 3.2-3.22 5.28-.62.6-.89.79-1.23.79-.16 0-.42-.19-.42-.74V.94c0-.65-.18-.94-.74-.94H9.15c-.42 0-.67.3-.67.59 0 .62.94.76 1.04 2.51v3.8c0 .83-.15.98-.49.98-.89 0-3.05-3.21-4.34-6.88-.25-.72-.5-1-1.17-1H.9C.15 0 0 .34 0 .72c0 .69.89 4.08 4.14 8.56C6.31 12.34 9.37 14 12.15 14c1.67 0 1.87-.37 1.87-1.01v-2.31c0-.74.16-.88.69-.88.39 0 1.06.19 2.62 1.66C19.11 13.21 19.4 14 20.4 14h2.63c.75 0 1.12-.37.9-1.1s-1.08-1.78-2.21-3.02c-.61-.71-1.53-1.48-1.81-1.86-.39-.49-.28-.71 0-1.15 0 0 3.2-4.42 3.53-5.93z"/></symbol><symbol fill="currentColor" viewBox="0 0 22 17" id="social-youtube" xmlns="http://www.w3.org/2000/svg"><rect width="21" height="16" rx="0" transform="translate(.5 .5)"/><path d="M18.6 0H3.17C1.31 0 0 1.59 0 3.39v10.1C0 15.4 1.31 17 3.17 17h15.65c1.64 0 3.18-1.6 3.18-3.4V3.39C21.78 1.59 20.46 0 18.6 0M7.66 12.53V4.46l7.33 4.04z"/></symbol><symbol fill="currentColor" viewBox="0 0 16 14" id="toggle-list" xmlns="http://www.w3.org/2000/svg"><path fill-rule="evenodd" d="M2 0H0v2h2zm14 0H4v2h12zM2 4H0v2h2zm14 0H4v2h12zM2 8H0v2h2zm14 0H4v2h12zM2 12H0v2h2zm14 0H4v2h12z"/></symbol><symbol fill="currentColor" viewBox="0 0 16 14" id="toggle-plite" xmlns="http://www.w3.org/2000/svg"><path fill-rule="evenodd" d="M0 0h4v6H0zm10 0H6v6h4zm2 0h4v6h-4zM0 8h4v6H0zm6 0h4v6H6zm10 0h-4v6h4z"/></symbol><symbol fill="currentColor" viewBox="0 0 16 14" id="toggle-simple" xmlns="http://www.w3.org/2000/svg"><path fill-rule="evenodd" d="M0 0h16v10H0zm14 8V2H2v6zM0 12h16v2H0z"/></symbol></svg>