<svg width="32.000000" height="32.000000" viewBox="0 0 32 32" fill="none" xmlns="http://www.w3.org/2000/svg" xmlns:xlink="http://www.w3.org/1999/xlink">
	<desc>
			Created with Pixso.
	</desc>
	<defs>
		<clipPath id="clip33719_609">
			<rect id="favicon" rx="3.500000" width="31.000000" height="31.000000" transform="translate(0.500000 0.500000)" fill="white" fill-opacity="0"/>
		</clipPath>
	</defs>
	<rect id="Фавикон" rx="0.000000" width="31.000000" height="31.000000" transform="translate(0.500000 0.500000)" fill="#FFFFFF" fill-opacity="1.000000"/>
	<rect id="favicon" rx="3.500000" width="31.000000" height="31.000000" transform="translate(0.500000 0.500000)" fill="#83B3D3" fill-opacity="1.000000"/>
	<g clip-path="url(#clip33719_609)">
		<path id="Vector" d="M4.25 8.18L15.92 21.96L27.56 8.25L4.25 8.18Z" fill="#23A9E1" fill-opacity="1.000000" fill-rule="nonzero"/>
		<path id="Vector" d="M13.12 13.34L19.41 13.34C18.94 13.05 17.81 11.67 17.23 12.18C17.2 12.21 15.45 10.1 14.32 11.12C13.34 12.03 12.87 11.01 11.78 11.7C10.47 12.58 12.5 13.05 13.12 13.34ZM22.83 12.07L19.27 12.1C20.69 10.47 21.3 10.65 22.83 12.07Z" fill="#FFFFFF" fill-opacity="1.000000" fill-rule="nonzero"/>
		<path id="Vector" d="M26.39 9.3L26.39 8.43L27.16 8.43L26.39 9.3ZM8.5 12.72C8.54 12.76 9.38 11.85 10.72 10.94C11.96 10.1 13.85 9.16 15.96 9.16C18.07 9.16 20 10.14 21.23 10.98C22.58 11.85 23.41 12.72 23.45 12.76L22.54 13.85C20.9 14.07 19.74 15.27 18.14 15.01C17.34 14.87 17.3 14.43 17.09 13.96C16.9 13.6 16.61 13.67 16.25 13.52C15.92 13.38 15.7 13.12 15.01 13.27C14.43 13.41 14.36 14.32 13.6 14.29C13.2 14.25 13.16 13.7 12.58 12.98C11.09 11.2 9.73 11.42 8.78 13.05L8.5 12.72ZM5.45 8.43L5.45 9.12L4.87 8.43L5.45 8.43ZM25.05 8.43L26.21 8.43L26.21 9.52L25.05 10.9L25.05 8.43ZM23.56 12.58L23.56 8.43L24.83 8.43L24.83 11.12L23.56 12.58ZM23.38 8.8L23.38 12.39C22.98 12 22.54 11.63 22.07 11.3L23.38 8.8ZM21.89 8.69L21.89 11.16C21.7 11.05 21.56 10.9 21.34 10.8C21.09 10.65 20.83 10.47 20.54 10.32L21.89 8.69ZM20.29 8.61L20.29 10.18C19.92 10 19.52 9.81 19.16 9.63L20.29 8.61ZM20.5 8.43L21.85 8.43L20.5 10.1L20.5 8.43ZM22.07 8.43L23.38 8.43L22.07 11.01L22.07 8.43ZM18.87 8.43L20.29 8.43L19.01 9.56C18.98 9.56 18.94 9.52 18.9 9.52L18.87 8.43ZM18.69 8.58L18.69 9.45C18.32 9.3 17.96 9.19 17.56 9.12L18.69 8.58ZM17.16 8.58L17.16 9.05C16.9 9.01 16.65 8.98 16.36 8.94L17.16 8.58ZM14.69 8.58L15.49 8.94C15.2 8.94 14.94 8.98 14.69 9.05L14.69 8.58ZM13.2 8.58L14.32 9.12C13.92 9.19 13.56 9.3 13.2 9.45L13.2 8.58ZM14.5 9.01L13.3 8.43L14.5 8.43L14.5 9.01ZM15.78 8.87L14.76 8.39L15.78 8.39L15.78 8.87ZM16.03 8.43L17.09 8.43L16.03 8.9L16.03 8.43ZM17.38 8.43L18.54 8.43L17.38 9.01L17.38 8.43ZM12.87 9.56L11.6 8.43L13.01 8.43L13.01 9.52L12.87 9.56ZM11.56 8.61L12.69 9.6C12.29 9.74 11.92 9.92 11.56 10.14L11.56 8.61ZM10 8.69L11.3 10.32C10.83 10.58 10.39 10.87 10 11.2L10 8.69ZM8.47 8.8L9.78 11.34C9.3 11.7 8.87 12.07 8.47 12.5L8.47 8.8ZM9.81 10.98L8.5 8.39L9.81 8.39L9.81 10.98ZM11.38 10.07L10.03 8.39L11.38 8.39L11.38 10.07ZM6.8 10.72L5.63 9.34L5.63 8.43L6.8 8.43L6.8 10.72ZM7.01 8.43L8.29 8.43L8.29 12.5L7.01 10.98L7.01 8.43ZM4 8L4 13.3L16 27.81L28 13.45L28 8L4 8Z" fill="#491213" fill-opacity="1.000000" fill-rule="nonzero"/>
		<path id="Vector" d="M15.05 24.72L16 23.2L16.94 24.72L16 26.25L15.05 24.72Z" fill="#23A9E1" fill-opacity="1.000000" fill-rule="nonzero"/>
		<path id="Vector" d="M17.89 19.12C16.65 18.39 16.94 17.85 17.96 17.34C18.5 17.09 19.7 16.1 20.18 16.43L17.89 19.12ZM17.05 20.03C16.32 20 15.49 19.89 14.76 20.07C15.2 20.18 16.29 20.5 15.27 20.76C15.63 21.27 16.21 21.23 16.58 20.8C16.43 20.72 16.32 20.61 16.21 20.54C16.61 20.43 16.98 20.21 17.05 20.03ZM17.49 19.45C17.16 19.16 16.79 19.16 16.5 19.45C16.07 18.69 14.54 18.94 13.81 18.83C14.21 19.78 17.3 19.96 17.49 19.45ZM15.01 18.65C14.43 18.47 12.54 18.5 13.78 18C14.18 17.85 16.21 18.03 15.01 18.65ZM15.74 17.56C15.56 17.16 15.89 16.69 16.36 17.05C16.79 17.34 16.14 17.78 15.74 17.56ZM14.69 17.59C13.85 17.85 12.76 17.3 14.1 17.05C14.94 16.87 15.81 17.23 14.69 17.59ZM13.74 15.34C13.56 15.92 13.2 16.03 13.23 15.34C13.27 14.5 13.81 14.72 14.39 14.39C14.87 14.14 15.12 13.16 15.96 13.74C16.32 14 16.76 13.78 16.87 14.18C16.87 14.14 15.81 16.61 16.39 16.61C15.23 16.61 15.74 15.23 16.18 14.29C15.74 14.5 15.05 15.85 15.63 16.1C15.34 16.5 14.39 17.05 13.92 16.65C13.52 16.29 13.74 15.81 13.74 15.34ZM12.29 16.36C10.25 16.36 11.63 13.23 12.32 13.41C13.12 13.67 13.01 16.39 12.29 16.36ZM10.03 13.38C9.09 13.34 9.49 12.43 10.14 12.25C10.76 12.07 12.03 12.65 12.47 13.05C11.81 13.27 10.98 13.23 10.25 13.27C10.18 12.54 9.99 12.8 10.03 13.38Z" fill="#DC6243" fill-opacity="1.000000" fill-rule="nonzero"/>
		<path id="Vector" d="M17.01 17.38C15.96 16.29 18.58 16.4 19.01 16C19.3 16.1 21.56 14.03 22.1 14.18C21.7 14.65 20.87 16.1 20.29 16.1C19.81 16.1 19.34 16.03 18.98 16.36C18.43 16.87 17.56 17.12 17.01 17.38Z" fill="#F49774" fill-opacity="1.000000" fill-rule="nonzero"/>
		<path id="Vector" d="M17.34 16.07C16.76 16.39 16.21 15.16 17.23 15.27C17.89 15.34 18.58 15.2 19.2 15.3C18.72 15.85 18.07 16.14 17.34 16.07Z" fill="#F4B1A4" fill-opacity="1.000000" fill-rule="nonzero"/>
		<path id="Vector" d="M9.49 15.59C9.59 15.74 9.7 15.89 9.67 16.1C9.67 16.25 9.45 16.47 9.59 16.54L10.14 15.89C9.99 15.85 8.87 14.5 8.87 14.36L8.1 14.76C8.14 14.9 8.39 14.76 8.54 14.76C8.72 14.76 8.87 14.9 9.01 15.01C8.61 15.34 7.63 16.21 7.52 16.21C7.49 16.21 7.27 16.07 7.27 16.21C7.27 16.29 7.49 16.47 7.52 16.5L8.03 17.12C8.18 17.05 7.99 16.94 8.07 16.83C8.1 16.76 9.23 15.85 9.49 15.59ZM8.25 13.96C8.36 13.92 8.39 14.07 8.47 13.96L7.89 13.27C7.81 13.16 7.7 13.05 7.7 13.27C7.74 13.41 6.25 14.61 6.18 14.65C6.07 14.69 5.99 14.54 5.92 14.69C6.1 14.9 6.25 15.09 6.43 15.3C6.5 15.38 6.54 15.45 6.61 15.52C6.69 15.59 6.65 15.38 6.65 15.38C6.61 15.27 6.76 15.16 6.87 15.09C7.23 14.72 8.14 13.96 8.25 13.96ZM6.18 13.74C5.78 13.85 5.3 13.7 5.19 13.27C5.05 12.83 5.34 12.39 5.67 12.14C5.99 11.89 6.5 11.92 6.69 12.32C6.76 12.5 6.72 12.72 6.65 12.9C6.61 13.01 6.5 13.12 6.65 13.2C6.87 12.94 7.05 12.69 7.27 12.43C7.01 12.29 6.9 12.03 6.72 11.81C6.5 11.56 6.25 11.3 5.89 11.27C5.19 11.16 4.58 11.89 4.5 12.5C4.47 12.83 4.58 13.16 4.79 13.45C4.98 13.67 5.23 13.85 5.38 14.1C5.45 14.14 6.03 13.85 6.14 13.81C6.21 13.81 6.18 13.78 6.18 13.74ZM15.45 22.32C15.19 22.14 14.5 21.23 14.36 21.05L14.29 20.94L14.21 20.98C14.18 21.01 14.25 21.12 14.21 21.2C14.03 21.49 12.87 22.36 12.79 22.43C12.65 22.5 12.5 22.39 12.43 22.5C12.61 22.72 13.09 23.34 13.16 23.34C13.27 23.34 13.19 23.16 13.19 23.12C13.23 23.05 13.81 22.54 14.03 22.36C14.1 22.29 14.18 22.47 14.25 22.54C14.32 22.65 14.36 22.8 14.32 22.9C14.29 22.98 14.14 23.12 14.25 23.2C14.39 23.01 14.79 22.54 14.87 22.47C14.94 22.39 14.72 22.47 14.76 22.43C14.69 22.47 14.58 22.5 14.5 22.43C14.47 22.43 14.25 22.18 14.29 22.14C14.39 22.07 14.5 21.92 14.65 21.89C14.87 21.85 15.01 22.25 15.05 22.39C15.09 22.54 15.09 22.69 15.01 22.8C14.98 22.9 14.9 22.98 15.01 23.01L15.52 22.32C15.52 22.36 15.49 22.36 15.45 22.32ZM12.1 19.09C11.85 19.09 11.59 19.2 11.38 19.38C10.87 19.81 10.79 20.58 11.19 21.12C11.67 21.74 12.43 21.81 13.05 21.38C13.56 20.94 13.63 20.18 13.23 19.63C12.94 19.27 12.5 19.09 12.1 19.09ZM12.54 19.59C12.87 19.56 13.09 19.89 12.94 20.25C12.79 20.61 12.43 20.98 12.07 21.12C11.63 21.3 11.34 20.94 11.52 20.5C11.67 20.14 12.03 19.78 12.39 19.63C12.43 19.63 12.47 19.59 12.54 19.59ZM11.52 17.92C11.63 17.92 11.74 18.07 11.81 17.92L11.3 17.3C11.16 17.38 11.3 17.45 11.27 17.52C11.19 17.63 10.65 17.7 10.5 17.74C10.54 17.59 10.72 17.12 10.79 17.09C10.94 16.98 11.01 17.2 11.09 17.05L10.43 16.29C10.36 16.21 10.29 16.03 10.21 16.14C10.21 16.14 10.21 16.5 10.18 16.54C10.14 16.61 9.96 17.41 9.74 17.59C9.63 17.7 9.19 18.07 9.09 18.1C8.98 18.14 8.9 17.96 8.79 18.1L9.38 18.79C9.41 18.83 9.52 19.01 9.56 19.01C9.67 19.05 9.56 18.79 9.59 18.76C9.63 18.65 10.18 18.1 10.43 18.07C10.76 18 11.16 17.89 11.52 17.92ZM20.32 20.36C20.36 20.5 20.39 20.69 20.36 20.83C20.32 21.05 20.14 21.52 19.85 21.38C19.56 21.23 19.34 20.98 19.09 20.76C19.27 20.54 19.45 20.36 19.78 20.47C19.85 20.5 19.92 20.47 19.85 20.39C19.74 20.32 19.12 19.92 19.09 19.96C19.01 20.03 19.19 20.18 19.12 20.32C19.09 20.43 18.98 20.5 18.9 20.61C18.72 20.47 18.47 20.32 18.65 20.07C18.79 19.92 18.94 19.78 19.16 19.74C19.3 19.7 19.59 19.85 19.63 19.7C19.38 19.59 19.12 19.45 18.87 19.34C18.9 19.52 18.07 20.39 17.89 20.61C17.85 20.65 17.74 20.76 17.74 20.8C17.74 20.9 17.89 20.83 17.89 20.83C17.99 20.8 19.49 22.03 19.52 22.14C19.56 22.21 19.49 22.29 19.52 22.32C19.52 22.32 19.56 22.36 19.59 22.36C19.7 22.25 20.65 20.94 20.87 20.9C20.69 20.61 20.5 20.32 20.32 20.03C20.18 20.1 20.29 20.29 20.32 20.36ZM18.87 21.96C18.39 21.63 17.56 22.25 17.41 22.32C17.16 22.43 16.98 22.18 17.12 21.96C17.23 21.78 17.45 21.67 17.67 21.67C17.74 21.67 17.99 21.7 17.99 21.67C18.03 21.63 18.03 21.63 17.99 21.59C17.78 21.45 17.59 21.3 17.38 21.2C17.34 21.45 17.05 21.59 16.9 21.78C16.72 22 16.54 22.25 16.54 22.5C16.54 22.76 16.69 23.01 16.94 23.12C17.19 23.27 17.49 23.16 17.74 23.01C17.89 22.9 18.03 22.8 18.18 22.72C18.39 22.61 18.72 22.72 18.65 23.01C18.58 23.27 18.32 23.49 18.07 23.56C17.92 23.59 17.78 23.59 17.63 23.52C17.52 23.49 17.41 23.34 17.34 23.49L18.18 24.07C18.21 23.89 18.29 23.81 18.43 23.7C18.61 23.56 18.76 23.38 18.9 23.2C19.19 22.87 19.3 22.29 18.87 21.96ZM25.27 11.74L24.94 12.1L24.65 12.47C24.58 12.54 24.54 12.58 24.65 12.65C24.83 12.54 25.92 14.39 25.85 14.65C25.67 14.72 24.21 13.45 24.18 13.38C24.18 13.34 24.25 13.12 24.14 13.16C24.1 13.16 23.96 13.38 23.92 13.41L23.7 13.67C23.78 13.78 23.81 13.67 23.92 13.67C23.99 13.7 24.36 14 24.47 14.07C24.29 14.07 23.85 14.1 23.78 14.1C23.56 14.14 23.67 13.96 23.52 13.89L22.98 14.54L22.65 14.9C22.65 14.9 22.65 14.9 22.65 14.94C22.72 15.01 22.69 14.98 22.79 14.94C22.9 14.9 24.36 16.1 24.39 16.18C24.47 16.29 24.36 16.39 24.5 16.47L24.94 15.96C24.98 15.92 24.98 15.92 24.94 15.92C24.83 15.85 24.83 15.96 24.69 15.96C24.58 15.92 23.63 15.16 23.3 14.87L25.23 14.8C25.3 14.8 25.49 15.01 25.49 15.09C25.45 15.16 25.38 15.23 25.49 15.27C25.59 15.12 25.7 15.01 25.81 14.87L25.85 14.8C25.89 14.8 25.89 14.76 25.89 14.72L25.92 14.69C26.03 14.58 26.36 14.21 26.32 14.18C26.21 14.07 26.18 14.29 26.03 14.18C25.96 14.1 25.74 13.74 25.7 13.67C25.63 13.56 25.85 13.45 25.92 13.41C26.1 13.3 26.69 13.12 26.76 13.49C26.76 13.56 26.69 13.63 26.72 13.67C26.72 13.67 26.76 13.74 26.79 13.7L27.56 12.76C27.52 12.72 27.52 12.72 27.49 12.69C27.3 12.87 25.49 12.14 25.38 12.03C25.34 11.96 25.34 11.74 25.27 11.74ZM25.19 12.69C25.49 12.8 25.74 12.9 26.03 13.05C25.96 13.09 25.89 13.12 25.81 13.16C25.74 13.2 25.67 13.27 25.59 13.34L25.19 12.69ZM22.79 15.49C22.39 15.45 21.99 15.63 21.7 15.96C21.27 16.5 21.3 17.3 21.85 17.74C22.39 18.18 23.19 18.07 23.63 17.56C24.07 17.01 24.03 16.21 23.49 15.78C23.3 15.63 23.05 15.52 22.79 15.49ZM22.29 16.07C22.5 16.07 22.76 16.21 22.9 16.32C23.19 16.5 23.7 16.94 23.45 17.3C23.45 17.27 23.49 17.27 23.41 17.34C23.12 17.63 22.61 17.38 22.36 17.16C22.1 16.98 21.63 16.54 21.92 16.18C22.03 16.1 22.14 16.07 22.29 16.07ZM21.16 17.63C20.72 17.59 20.29 17.81 19.96 18.21C19.74 18.5 19.49 18.76 19.27 19.05C19.34 19.16 19.45 19.01 19.56 19.09C19.67 19.16 21.05 20.29 21.05 20.36C21.09 20.47 20.98 20.5 21.09 20.58C21.12 20.61 22.14 19.34 22.25 19.12C22.39 18.72 22.29 18.25 21.96 17.96C21.67 17.74 21.41 17.63 21.16 17.63ZM20.76 18.21C20.79 18.21 20.83 18.21 20.87 18.21C21.38 18.36 22.1 18.98 21.63 19.52C21.56 19.59 21.63 19.52 21.49 19.67C21.41 19.74 19.96 18.58 20.03 18.5C20.18 18.32 20.5 18.18 20.76 18.21Z" fill="#FFFFFF" fill-opacity="1.000000" fill-rule="nonzero"/>
	</g>
</svg>
