<svg xmlns="http://www.w3.org/2000/svg" width="75" height="72" fill="none" viewBox="0 0 75 72"><rect width="74" height="71" rx="0" transform="translate(.5 .5)"/><path fill="#83B3D3" fill-rule="evenodd" d="M6.1 32.5h63.87c0-.61.1-1.2.1-1.9v-1.21c-.7-15.69-14.74-28.39-31.98-28.39-17.35 0-31.38 12.7-32.08 28.5v1.27c0 .57 0 1.15.09 1.73m31.99-28.5c15.64 0 28.47 11.3 29.07 25.5h-58.14c.6-14.11 13.43-25.5 29.07-25.5m-7.82 9.2c1.05 0 1.9-.9 1.9-2 0-1.11-.85-2.01-1.9-2.01s-1.91.9-1.91 2.01.86 2 1.91 2m17.44-2c0 1.1-.85 2-1.9 2s-1.91-.9-1.91-2c0-1.11.86-2.01 1.91-2.01s1.9.9 1.9 2.01m-7.72 5.09c0 1.11-.85 2-1.9 2a1.96 1.96 0 0 1-1.91-2c0-1.1.86-1.99 1.91-1.99s1.9.89 1.9 1.99m-17.94 27.21-5.42-4.11-5.31 4.11-6.21-4.7 1.7-2.5 4.51 3.4 5.31-4.1 5.42 4.1 5.31-4.1 5.31 4.1 5.32-4.1 5.41 4.1 5.31-4.1 5.32 4.1 5.41-4.1 5.31 4.1 4.52-3.4 1.7 2.5-6.22 4.7-5.31-4.11-5.41 4.11-5.32-4.11-5.31 4.11-5.41-4.11-5.32 4.11-5.31-4.11zm49.02 4.2h-65.96a4.17 4.17 0 0 0-4.11 4.3v3.5c0 2.39 1.9 4.3 4.11 4.3h.9v1.09c0 5.5 4.31 10.11 9.62 10.11h44.71c5.32 0 9.63-4.5 9.63-10.11v-1.09h.9a4.17 4.17 0 0 0 4.11-4.3v-3.5a4 4 0 0 0-3.91-4.3m1.2 7.8c0 .7-.6 1.3-1.2 1.3h-66.06c-.71 0-1.21-.6-1.21-1.3v-3.5c0-.7.6-1.3 1.21-1.3h65.96c.7 0 1.2.6 1.2 1.3.1 0 .1 3.5.1 3.5m-5.11 5.39c0 3.91-3.01 7-6.72 7h-44.81c-3.71 0-6.72-3.2-6.72-7v-1.09h58.25z"/></svg>