<svg xmlns="http://www.w3.org/2000/svg" width="75" height="76" fill="none" viewBox="0 0 75 76"><rect width="74" height="71" rx="0" transform="translate(.5 2.5)"/><path fill="#83B3D3" d="M67.1 22.46h-24.8c13.8-6.91 14.9-11.31 14.4-13.71-1.2-4-5.7-7.01-10-5.41-5.6 2.11-7.1 10.41-8.6 16.42-2-6.11-3.8-13.81-8.21-17.72-1.29-1.1-3.09-2.3-5.79-2-4 .4-9.8 5.41-7.5 11.01 2.29 5.4 9.7 8.81 14.6 11.51h-22.31a2.9 2.9 0 0 0-2.89 2.9v11.31c0 1.6 1.3 2.9 2.89 2.9h.3v36.33h57.81v-36.43h.1a2.9 2.9 0 0 0 2.9-2.9v-11.31a2.9 2.9 0 0 0-2.9-2.9m-18.71-16.61c2.11-.3 5 1.3 5.31 3.2.4 2.8-3.4 5.3-5.1 6.4-2.5 1.7-4.9 2.6-7.3 4.11.9-3.71 2.5-13.01 7.09-13.71m-22.89 10c-2.2-1.5-6.5-4.4-6.4-7.8.1-3.61 5.7-6.61 8.79-3.91 3.91 3.41 5.71 11.11 7.11 16.62-3.2-1.5-6.3-2.81-9.5-4.91m6 57.14h-19.4v-33.42h19.4zm0-36.52h-22.5v-11.01h22.5zm10.2 0v36.52h-7.2v-47.43h7.2zm22.3 36.52h-19.4v-33.42h19.4zm2.89-36.52h-22.29v-11.01h22.29z"/></svg>