<svg xmlns="http://www.w3.org/2000/svg" width="20" height="20" fill="none" viewBox="0 0 20 20"><defs><clipPath id="a"><rect width="19" height="19" fill="#fff" fill-opacity="0" rx="0" transform="translate(.5 .5)"/></clipPath></defs><g clip-path="url(#a)" opacity=".3"><path fill="#000" fill-rule="evenodd" d="M17 4h-2v-2h-1v2h-8v-2h-1v2h-2c-.61 0-1 .4-1 1v11c0 .5.39 1 1 1h14c.5 0 1-.5 1-1v-11c0-.6-.5-1-1-1m-14 4v-3h2v2h1v-2h8v2h1v-2h2v3zm14 8h-14v-7h14zm-11.5-4c.3 0 .5-.2.5-.5s-.2-.5-.5-.5c-.31 0-.5.2-.5.5s.19.5.5.5m2.25 0c.3 0 .5-.2.5-.5s-.2-.5-.5-.5c-.31 0-.5.2-.5.5s.19.5.5.5m2.25 0c.3 0 .5-.2.5-.5s-.2-.5-.5-.5c-.31 0-.5.2-.5.5s.19.5.5.5m2.25 0c.3 0 .5-.2.5-.5s-.2-.5-.5-.5-.5.2-.5.5.2.5.5.5m2.25 0c.3 0 .5-.2.5-.5s-.2-.5-.5-.5-.5.2-.5.5.2.5.5.5m-9 1c-.31 0-.5.2-.5.5s.19.5.5.5c.3 0 .5-.2.5-.5s-.2-.5-.5-.5m2.25 0c-.31 0-.5.2-.5.5s.19.5.5.5c.3 0 .5-.2.5-.5s-.2-.5-.5-.5m2.25 0c-.31 0-.5.2-.5.5s.19.5.5.5c.3 0 .5-.2.5-.5s-.2-.5-.5-.5m2.25 0c-.3 0-.5.2-.5.5s.2.5.5.5.5-.2.5-.5-.2-.5-.5-.5m2.25 0c-.3 0-.5.2-.5.5s.2.5.5.5.5-.2.5-.5-.2-.5-.5-.5"/></g></svg>