<svg xmlns="http://www.w3.org/2000/svg" width="20" height="20" fill="none" viewBox="0 0 20 20"><defs><clipPath id="a"><rect width="19" height="19" fill="#fff" fill-opacity="0" rx="0" transform="translate(.5 .5)"/></clipPath></defs><g clip-path="url(#a)"><path fill="#000" d="M9.89 19a.9.9 0 0 1-.79-.4c-5.41-6.1-6.71-7.5-7-7.9a5.4 5.4 0 0 1-1.1-3.3c0-3 2.39-5.4 5.5-5.4 1.3 0 2.5.5 3.5 1.3a5.46 5.46 0 0 1 9 4.1c0 1.3-.5 2.49-1.3 3.4l-7 7.9c-.2.2-.4.3-.81.3m-6-9.5c.3.39 3.5 4 6.11 6.9l6.2-7.01c.5-.5.69-1.19.69-1.99 0-1.8-1.5-3.3-3.29-3.3-1 0-2 .5-2.71 1.3-.29.3-.59.4-.89.4s-.61-.2-.81-.4a3.6 3.6 0 0 0-2.69-1.3 3.33 3.33 0 0 0-3.31 3.3c-.09.9.31 1.6.7 2.1"/></g></svg>