<svg xmlns="http://www.w3.org/2000/svg" width="24" height="14" fill="none" viewBox="0 0 24 14"><path fill="#83B3D3" fill-rule="evenodd" d="M23.45.94c.16-.54 0-.94-.8-.94h-2.62c-.67 0-.98.34-1.15.72 0 0-1.33 3.2-3.22 5.28-.62.6-.89.79-1.23.79-.16 0-.42-.19-.42-.74v-5.11c0-.65-.18-.94-.74-.94h-4.12c-.42 0-.67.3-.67.59 0 .62.94.76 1.04 2.51v3.8c0 .83-.15.98-.49.98-.89 0-3.05-3.21-4.34-6.88-.25-.72-.5-1-1.17-1h-2.62c-.75 0-.9.34-.9.72 0 .69.89 4.08 4.14 8.56 2.17 3.06 5.23 4.72 8.01 4.72 1.67 0 1.87-.37 1.87-1.01v-2.31c0-.74.16-.88.69-.88.39 0 1.06.19 2.62 1.66 1.78 1.75 2.07 2.54 3.07 2.54h2.63c.75 0 1.12-.37.9-1.1s-1.08-1.78-2.21-3.02c-.61-.71-1.53-1.48-1.81-1.86-.39-.49-.28-.71 0-1.15 0 0 3.2-4.42 3.53-5.93z"/></svg>