<svg xmlns="http://www.w3.org/2000/svg" width="115" height="33" fill="none" viewBox="0 0 115 33"><defs><clipPath id="a"><rect width="114" height="32" fill="#fff" fill-opacity="0" rx="0" transform="translate(.5 .5)"/></clipPath></defs><rect width="114" height="32" rx="0" transform="translate(.5 .5)"/><g clip-path="url(#a)"><rect width="113.9" height="31.9" rx="0" transform="translate(.5 .5)"/><path fill="#000" fill-rule="evenodd" d="M11.6 4.5c-1.6 0-2.8.69-3.6 1.69h-.11v-6.19h-2v15.5h2v-5.3c0-2.1 1.3-3.6 3.31-3.6 1.8 0 2.9 1.4 2.9 3.2v5.7h2v-6.33c0-2.87-1.87-4.67-4.5-4.67m36.2 8.2c0 1.69 1 2.69 2.8 2.69h2v-2h-1.71c-.69 0-1.09-.39-1.09-1.09v-12.3h-2zm-21.2-7.9h-4.8v-3.7h-2.01v3.79h-1.9v2h1.9v6c0 1.71 1.01 2.71 2.71 2.71h4.1v-2h-3.71c-.69 0-1.09-.4-1.09-1.1v-5.7h4.8zm14.5-.2c-1.6 0-2.9.79-3.5 2.09h-.1a3.8 3.8 0 0 0-3.4-2.09c-1.4 0-2.5.79-3.1 1.79h-.11v-1.59h-1.89v10.59h2v-5.39c0-2 1-3.5 2.6-3.5 1.5 0 2.4 1 2.4 2.6v6.29h2v-5.59c0-2.41 1.39-3.3 2.6-3.3 1.5 0 2.4 1 2.4 2.6v6.29h2v-6.73c0-2.38-1.48-4.06-3.9-4.06m-41.1 8.29v2.61h2.5v-2.61zm68.69 6.9a5 5 0 0 0-3.89-1.9c-3.1 0-5.41 2.31-5.41 5.61s2.21 5.6 5.41 5.6c1.7 0 3-.8 3.8-1.8h.09v1.5h2v-15.41h-2zm-39.8-.09a4.8 4.8 0 0 0-3.89-1.81c-3.11 0-5.4 2.31-5.4 5.61s2.29 5.6 5.4 5.6c1.8 0 3-.8 3.8-1.9h.09v1.6h2v-10.6h-2zm15.31 2.3c-.5-2.4-2.6-4.11-5.4-4.11a5.4 5.4 0 0 0-5.6 5.61 5.4 5.4 0 0 0 5.6 5.6c2.8 0 4.9-1.8 5.4-4.21h-2.1a3.4 3.4 0 0 1-3.3 2.31c-2.2 0-3.6-1.6-3.6-3.6s1.4-3.6 3.6-3.6c1.59 0 2.8 1 3.3 2.2h2.1zm10.9-2.3a4.9 4.9 0 0 0-3.9-1.81c-3.1 0-5.4 2.31-5.4 5.61s2.3 5.6 5.4 5.6c1.8 0 3-.8 3.8-1.9h.1v1.6h2v-10.6h-2zm23.2-1.81c-3.3 0-5.5 2.5-5.5 5.61 0 3 2.09 5.6 5.5 5.6 2.5 0 4.5-1.3 5.2-3.6h-2.11c-.5 1-1.59 1.6-3 1.6-1.89 0-3.29-1.3-3.39-2.9h8.8l.01-.45c0-3.38-2.16-5.86-5.51-5.86m19.9 0c-1.6 0-2.9.81-3.6 2h-.1c-.61-1.19-1.8-2-3.4-2-1.4 0-2.5.71-3.1 1.81v-1.5h-1.9v10.6h2v-5.41c0-2 1-3.39 2.6-3.5 1.5 0 2.4 1 2.4 2.61v6.3h2v-5.6c0-2.4 1.4-3.31 2.6-3.31 1.5 0 2.4 1 2.4 2.61v6.3h2v-6.75c0-2.47-1.48-4.16-3.9-4.16m11.2 9.11-3.6-8.9h-2.2l4.8 11.6c-.3.9-.7 1.19-1.7 1.19h-2.5v2h2.5c1.8 0 2.8-.79 3.5-2.59l4.7-12.2h-2.1zm-31.1-7.21c1.7 0 3 1.01 3.3 2.6h-6.5c.29-1.5 1.5-2.6 3.2-2.6m-53 7.31c-2.2 0-3.6-1.6-3.6-3.6s1.4-3.61 3.6-3.61 3.59 1.61 3.59 3.61c0 1.89-1.39 3.6-3.59 3.6m26.2 0c-2.2 0-3.61-1.6-3.61-3.6s1.41-3.61 3.61-3.61 3.6 1.61 3.6 3.61c0 1.89-1.5 3.6-3.6 3.6m13.6 0c-2.21 0-3.6-1.6-3.6-3.6s1.39-3.61 3.6-3.61 3.59 1.61 3.59 3.61c-.09 2-1.5 3.6-3.59 3.6"/></g></svg>