<svg xmlns="http://www.w3.org/2000/svg" width="75" height="72" fill="none" viewBox="0 0 75 72"><path fill="#83B3D3" fill-rule="evenodd" d="m72.89 39.3 2.11-2.1-9.94-9.9v-27.3h-13.96v13.6l-13.66-13.6-37.44 37.2 2.1 2.1 7.83-7.8v37.6h-4.01v2.9h64.16v-2.9h-5.13v-37.6zm-10.85-14.91-7.93-7.89v-13.61h7.93zm0 44.71h-49.19v-40.6l24.59-24.4 24.6 24.4zm-32.23-42c0 4.29 3.52 7.7 7.74 7.7a7.8 7.8 0 0 0 7.83-7.7c0-4.3-3.52-7.71-7.83-7.71a7.73 7.73 0 0 0-7.74 7.71m7.84-5a5 5 0 0 1 5.02 4.9c0 2.7-2.21 4.89-5.02 4.89a5 5 0 0 1-5.02-4.89c0-2.7 2.2-4.9 5.02-4.9m-17.68 19.1h-3.01v3.9h3.01zm5.93 0h-3.01v3.9h3.01zm3.71 23.8h16.07v-23.8h-16.07zm22.39-23.8h-3.01v3.9h3.01zm5.93 0h-3.02v3.9h3.02zm-25.4 2.9h10.14v18h-10.14zm-12.56 3.1h-3.01v3.9h3.01zm5.93 0h-3.01v3.9h3.01zm26.1 0h-3.01v3.9h3.01zm5.93 0h-3.02v3.9h3.02z"/></svg>